<svg xmlns="http://www.w3.org/2000/svg" width="1066.667" height="640" viewBox="0 0 1000 600"><path fill="#39f" d="M0 0h1000v600H0z"></path><path d="M498.16 150.043c-2.318.025-4.513.243-6.195.672-9.088 2.315-18.78 9.342-25.803 18.709a943.63 943.63 0 01-3.146 4.183c-.154.197-2.253.928-4.664 1.627-10.44 3.025-17.817 7.93-23.715 15.768-3.627 4.819-6.866 12.231-8.358 19.123-.163.756-.476 1.375-.693 1.375-.217 0-1.089-.985-1.938-2.19-4.215-5.98-13.939-9.387-26.837-9.402-3.334-.004-7.636.237-9.561.533-7.257 1.119-34.878.18-44-1.496-11.665-2.141-26.17-6.308-37.158-10.675-2.562-1.019-4.998-1.72-5.414-1.561-1.06.406-.537 2.703 1.601 7.041.95 1.925 1.724 3.645 1.723 3.82-.008 1.122-18.603 1.406-28.502.438-19.532-1.911-41.915-6.805-65.43-14.305-4.774-1.523-9.024-2.636-9.445-2.474-.642.246-.712.96-.426 4.386.188 2.25.7 5.564 1.137 7.364 1.725 7.097 6.618 15.315 11.643 19.552 2.245 1.893 2.41 2.207 3.158 6.006.886 4.499 2.986 9.364 5.14 11.912.79.935 2.62 2.456 4.063 3.38 2.207 1.411 2.706 2.016 3.14 3.8.888 3.647 4.06 9.359 6.91 12.437 1.506 1.626 4.622 4.209 6.924 5.74 2.303 1.533 4.186 3.08 4.186 3.44 0 .36 1.009 2.669 2.242 5.133 3.96 7.91 11.471 13.775 20.436 15.957 3.251.791 3.556.992 5.894 3.91 6.231 7.775 14.663 11.334 26.936 11.367 8.421.023 17.985-1.793 27.058-5.138l4.135-1.524 2.276 1.23c3.207 1.736 7.004 2.729 12.646 3.31l4.875.501 2.428 2.48 2.43 2.481-.475 2.899c-.261 1.593-.355 4.81-.21 7.148.599 9.605 4.76 17.538 12.329 23.508a614.665 614.665 0 014.152 3.297c.729.591.84 1.155.577 2.916-.18 1.2-.067 4.622.251 7.605 1.046 9.788 4.655 17.984 10.887 24.715 2.946 3.182 9.373 7.74 13.264 9.408 2.623 1.125 2.69 1.328 1.625 4.846-4.07 13.432.26 26.77 10.693 32.955l2.531 1.5.01 5.02c.022 10.981 3.626 17.224 12.516 21.673 5.092 2.549 8.565 3.258 14.244 2.907 5.09-.315 9.918-1.669 14.908-4.18l3.408-1.715 5.592 2.754c3.252 1.602 7.057 3.06 9.092 3.482 8.743 1.817 15.795.335 22.604-4.748 1.431-1.069 2.695-1.943 2.808-1.943.113 0 1.706 1.005 3.54 2.234 4.452 2.986 8.724 4.266 14.245 4.266 5.16 0 8.915-.89 14.215-3.365 3.64-1.7 4.022-1.781 5.5-1.16 5.616 2.357 10.27 3.617 14.274 3.86 10.111.618 18.67-3.369 23.787-11.077 2.823-4.254 3.828-7.686 4.144-14.162l.276-5.657 2.75-1.76c1.513-.967 3.99-2.921 5.503-4.343 6.962-6.54 9.702-14.986 8.463-26.086l-.39-3.5 5.89-2.865c9.511-4.626 15.654-10.574 19.91-19.283 2.665-5.452 3.788-10.345 4.1-17.852l.272-6.5 3.15-3.404c4.302-4.649 6.619-8.28 8.678-13.596 1.689-4.361 1.746-4.729 1.826-11.943l.082-7.446 3.627-1.68c1.995-.923 4.397-2.496 5.34-3.495 1.652-1.753 1.85-1.823 5.56-1.942 4.391-.14 7.134-1.105 9.412-3.31l1.565-1.514 2.004 1.021c4.136 2.11 12.49 5.173 18.08 6.63 7.414 1.93 15.507 2.406 21.035 1.236 7.562-1.6 14.575-6.416 17.54-12.043.817-1.553 1.616-2.388 2.46-2.57 12.118-2.619 20.528-8.624 24.979-17.835 1.836-3.8 2.4-4.532 4.197-5.445 8.693-4.42 14.285-11.025 15.287-18.059.342-2.398.685-2.922 4.332-6.605 6.31-6.372 9.705-12.396 9.705-17.225 0-1.86.337-2.335 4.875-6.886 7.211-7.232 10.263-13.199 10.959-21.432.353-4.171-.024-6.207-1.148-6.207-.438 0-4.877 1.212-9.866 2.693-23.011 6.835-45.5 11.659-65.57 14.06-7.28.872-25.864 1.578-27.922 1.061l-1.338-.335.946-1.864c1.257-2.48 2.819-7.526 2.445-7.9-.164-.164-2.347.521-4.852 1.523-12.334 4.935-26.548 7.572-47.529 8.817-10.517.624-32.841.33-43.482-.57-7.498-.636-11.86-.106-16.358 1.99-3.386 1.577-7.057 4.681-8.72 7.373-.623 1.007-1.253 1.54-1.512 1.28-.245-.244-.971-2.342-1.615-4.661-5.111-18.403-16.91-29.645-33.655-32.067l-4.217-.609-4.402-5.05c-6.907-7.923-14.904-13.834-22.039-16.294-2.767-.953-6.976-1.446-10.84-1.404zm2.348 25.853c4.1 0 4.83.154 7.863 1.647 3.934 1.937 6.452 4.639 7.88 8.457.947 2.53 1.375 6.646.692 6.646-.171 0-2.072-.88-4.226-1.958-4.901-2.454-8.484-3.211-13.936-2.946-4.621.225-7.907 1.399-12.224 4.37-1.227.844-2.315 1.534-2.416 1.534-.717 0-1.385-1.503-1.385-3.119 0-4.266 4.692-10.428 9.887-12.984 3.035-1.494 3.765-1.647 7.865-1.647zm32.383 16.278c2.8-.073 5.886.207 7.652.8 9.656 3.247 16.542 13.622 14.754 22.225-.309 1.484-1.091 3.822-1.74 5.197-1.212 2.567-9.968 13.786-15.99 20.489-4.951 5.51-4.85 5.492-7.624 1.15-1.278-2.001-2.994-4.407-3.812-5.346l-1.486-1.705.347-11.795c.402-13.583.076-16.537-2.492-22.625-.96-2.275-1.744-4.282-1.744-4.459 0-.427 5.23-2.73 7.75-3.412 1.127-.305 2.705-.476 4.385-.52zm-63.983.66c2.84-.014 5.745.433 8.51 1.355 4.294 1.432 4.755 1.968 3.37 3.915-.942 1.321-1.414 1.542-3.292 1.542-9.907 0-14.224 5.306-12.514 15.375.417 2.45 1.108 2.654 2.813.829 1.793-1.92 3.622-2.702 6.31-2.702 3.018.003 5.464 1.425 6.432 3.743 2.114 5.06-.8 11.176-10.129 21.252-2.24 2.419-3.61 3.503-4.418 3.503-2.152 0-10.426-10.071-13.761-16.75-2.684-5.372-3.78-10.783-3.063-15.11 1.049-6.329 4.925-12.26 9.559-14.624 2.99-1.526 6.533-2.31 10.183-2.328zM384.51 307.207a.225.225 0 01.12.023c.207.092 2.063.99 4.126 1.997 4.631 2.26 8.466 3.068 13.494 2.843l3.871-.174 2.356 2.17c3.157 2.91 6.218 4.19 10.709 4.48 3.613.235 3.691.268 4.375 1.903.382.916.695 3.08.695 4.807 0 4.872 2.918 10.262 9.002 16.64 3.94 4.132 3.964 4.32.96 7.495-3.227 3.412-6.585 5.587-10.507 6.808-5.395 1.68-13.004 1.046-16.979-1.414-5.993-3.709-7.816-9.196-8.253-24.853l-.223-7.963-3.942-1.854c-4.416-2.076-7.655-4.976-9.091-8.138-.88-1.936-1.262-4.696-.713-4.77zm230.785 1.44c.78 0 .513 2.825-.53 5.607-1.359 3.629-4.73 7.296-9.538 10.38-2.528 1.622-3.951 2.844-3.793 3.255.838 2.186 1.416 7.292 1.203 10.63-.575 8.995-5.79 16.042-13.631 18.42-3.068.931-10.153 1.31-13.42.717-4.323-.784-9.43-2.55-14.053-4.857-4.66-2.326-7.777-4.382-7.777-5.13 0-.233 2.137-1.462 4.75-2.733 5.711-2.779 9.415-6.22 11.709-10.88 2.867-5.824 2.481-11.662-.834-12.638-.894-.263-1.625-.669-1.625-.9 0-.562 1.464-3.372 1.756-3.372.126 0 2.17.563 4.543 1.25 8.515 2.468 16.34 1.426 20.642-2.75 1.92-1.863 2.135-1.942 4.455-1.667 3.108.368 7.161-.769 12.018-3.37 2.015-1.079 3.871-1.963 4.125-1.963zm-56.58 65.5c.72 0 5.113 3.639 7.222 5.982 5.652 6.278 5.207 13.634-1.193 19.738-1.603 1.529-3.258 2.78-3.678 2.78-.43 0-1.222-1.037-1.814-2.376-1.283-2.9-3.2-4.98-4.941-5.36-.718-.158-2.73-.091-4.471.148-2.543.348-3.31.29-3.899-.3-.643-.643-.342-1.137 2.483-4.064 2.561-2.652 3.89-4.676 6.527-9.94 1.822-3.634 3.515-6.609 3.764-6.609zm-118.668 1c.328 0 1.424 1.743 2.433 3.874 1.01 2.132 2.702 5.225 3.762 6.875 2.165 3.368 3.444 7.022 2.713 7.752-.293.293-1.39.193-2.914-.265-7.728-2.326-12.644 1.805-10.197 8.57.465 1.287.453 1.791-.06 2.41-1.342 1.616-4.189.714-6.468-2.049-2.848-3.453-3.357-8.183-1.347-12.5 3.223-6.921 9.6-14.668 12.078-14.668zm69.932 5.5c.774 0 10.277 12.307 10.277 13.31 0 .43-.557.69-1.483.69-1.928 0-4.768 2.478-5.548 4.843-.334 1.011-.466 2.86-.303 4.239.352 2.976 2.511 7.941 4.103 9.437l1.17 1.098 1.655-2.43c.91-1.336 2.393-3.193 3.295-4.123 1.437-1.484 1.86-1.654 3.447-1.397.994.162 2.36.808 3.035 1.438 1.789 1.668 3.763 5.792 3.422 7.15-.347 1.382-5.238 5.941-7.746 7.221-2.27 1.158-5.817 1.616-7.817 1.01-3.951-1.198-7.895-6.735-9.177-12.887-.683-3.274-.702-13.852-.04-21.846.56-6.759.779-7.754 1.71-7.754zm-23.514.5c.985 0 1.216 1.62 1.887 13.134.468 8.046.472 11.304.011 14.463-1.086 7.454-4.906 13.436-9.449 14.797-2.503.75-3.42.736-5.717-.084-4.552-1.627-10.28-6.933-9.658-8.947 1.011-3.28 3.533-6.6 5.627-7.414 2.1-.816 3.481.024 6.387 3.884 2.76 3.669 2.823 3.714 3.826 2.823 1.335-1.186 3.208-5.237 3.947-8.532 1.063-4.736-1.307-9.33-5.127-9.94-1.08-.174-2.072-.489-2.203-.7-.35-.567 9.678-13.485 10.469-13.485zM450.91 404.97c4.84-.07 6.974 2.578 6.986 8.675.013 5.913-2.478 8.88-8.357 9.958-3.476.636-4.918.63-7.223-.034-4.215-1.212-5.578-3.316-5.918-9.142-.182-3.13-.062-4.255.534-5.032.761-.991.787-.988 3.244.375 1.362.757 2.722 1.375 3.02 1.375.297 0 .972-.843 1.501-1.875 1.65-3.216 3.153-4.256 6.213-4.3zm95.055 1.175c1.706 0 4.746 2.77 5.898 5.375.517 1.17 1.198 2.125 1.514 2.125.316 0 1.192-.59 1.947-1.314 1.728-1.655 2.706-1.305 3.469 1.24 1.247 4.161-1.033 8.298-5.39 9.783-5.315 1.811-10.435.29-13.723-4.074-3.241-4.3-3.231-4.268-1.903-6.418 2.675-4.328 5.587-6.717 8.188-6.717z" fill="#cba22a"></path><path d="M532.77 413.63c-.698-.754-1.27-1.534-1.27-1.734 0-.803-5.512-4.46-7.077-4.694-2.196-.328-4.504 1.117-6.018 3.769-.635 1.111-1.42 2.023-1.744 2.025-.972.006-2.81-5.506-2.863-8.58-.04-2.352.159-3.053 1.17-4.13 2.127-2.267 4.595-2.585 9.823-1.266l4.54 1.145 2.848-1.18 2.848-1.18 2.768 1.357 2.769 1.358 3.27-1.01c3.84-1.186 7.032-1.288 9.393-.302 4.23 1.767 4.807 7.334 1.267 12.22l-1.508 2.083-2.868-2.9c-5.224-5.282-8.032-5.075-12.996.96-1.552 1.885-2.88 3.429-2.951 3.429-.072 0-.702-.617-1.4-1.37zm-57.165-2.382c-2.326-3.3-4.268-4.365-7.424-4.071-3.328.31-5.505 1.467-6.76 3.593l-1.007 1.708-2.34-2.402c-2.442-2.507-5.856-4.086-8.788-4.065-2.271.016-5.436 1.634-6.93 3.544l-1.316 1.68-1.814-1.743c-6.038-5.8-4.377-14.459 2.558-13.333.973.157 3.317 1 5.209 1.872l3.44 1.586 3.487-1.058c4.5-1.367 4.79-1.35 9.01.513l3.56 1.572 3.972-.797c9.132-1.831 12.928 2.983 8.79 11.15-.698 1.376-1.447 2.503-1.664 2.503-.218 0-1.11-1.014-1.983-2.252zm-14.844-14.737c-1.004-1.108-1.318-4.55-.444-4.857.312-.11.96.194 1.44.674.48.48 1.458.884 2.174.897 1.605.03 1.97 1.339.849 3.05-.978 1.491-2.787 1.598-4.02.236zm68.933-.272c-1.68-1.68-1.47-3.49.403-3.49.741 0 1.63-.28 1.975-.624 1.113-1.108 2.428-.756 2.428.65 0 2.245-1.74 4.725-3.314 4.725-.127 0-.799-.568-1.492-1.26zm-62.416-1.35c-.89-1.272-1.083-6.642-.256-7.153.722-.446 1.978.694 1.978 1.795 0 1.288.72 1.575 2.226.889 2.636-1.201 3.008 1.89.526 4.373-1.517 1.517-3.449 1.559-4.474.096zm55.33-.17c-1.429-1-2.688-3.43-2.3-4.438.35-.912 1.744-1.03 2.558-.215.88.88 2.045.141 2.223-1.407.094-.82.505-1.466.99-1.558 1.066-.202 1.63 2.18 1.168 4.92-.555 3.282-2.33 4.315-4.639 2.698zm-72.806-1.344c-1.039-1.622-1.907-5.257-1.535-6.428.483-1.522 1.864-.933 2.882 1.228.644 1.37 1.124 1.827 1.689 1.61.975-.374 2.162.549 2.162 1.682 0 1.279-1.884 3.033-3.258 3.033-.717 0-1.516-.463-1.94-1.125zm90.488-.433c-1.684-1.324-1.711-4.192-.04-4.192 1.416 0 2.25-.654 2.25-1.762 0-1.035 1.719-2.221 2.51-1.732 1.353.836-.24 7.297-2.037 8.258-1.19.637-1.13.65-2.683-.572zm-82.928-2.567c-1.127-.85-2.362-3.981-2.362-5.989 0-1.096-.33-1.851-.984-2.26-1.213-.758-2.425-4.862-2.62-8.876-.13-2.66-.039-3 .8-3 1.128 0 1.647.854 2.05 3.375.308 1.929 1.514 2.583 2.073 1.125.38-.988 1.408-.952 2.447.087 1.134 1.134.672 3.748-1.02 5.758-.9 1.07-1.129 1.668-.732 1.913.317.196.846.893 1.176 1.55.446.887 1.013 1.192 2.218 1.192 2.724 0 3.457 2.43 1.365 4.522-1.34 1.34-3.112 1.582-4.411.603zm74.461-1.601c-2.325-2.155-1.49-4.848 1.435-4.631 1.138.084 1.593-.188 2.123-1.268.874-1.783 2.487-1.827 2.925-.08.179.712.058 2.188-.27 3.279-1.159 3.87-3.74 4.992-6.213 2.7zm-59.31-.622c-.77-.977-1.02-1.905-.912-3.37.172-2.334 1.353-2.932 2.945-1.49.933.844 1.026.826 2.365-.457 1.671-1.6 1.896-1.63 2.592-.33.696 1.301-.527 4.006-2.601 5.75-1.902 1.6-3.071 1.573-4.39-.103zm43.46-1.061c-1.938-1.938-2.815-3.98-2.293-5.34.44-1.145 1.81-.898 2.933.53l1.008 1.28 1.164-1.094c1.23-1.155 2.528-1.037 3.031.275.798 2.08-1.302 6.258-3.144 6.258-.434 0-1.649-.86-2.698-1.909zm-51.82-2.189c-1.37-.662-2.653-3.781-2.653-6.449 0-1.65.16-1.996.862-1.86.475.09 1.124.689 1.443 1.328.958 1.923 1.476 2.231 2.673 1.59 1.536-.822 2.522.145 2.522 2.472 0 2.979-2.102 4.245-4.846 2.92zm-19.081-.566c-1.676-2.019-2.74-7.365-1.604-8.066.268-.166.064-1.201-.477-2.425-1.299-2.935-2.383-11.153-1.579-11.958.97-.968 2.172.698 2.64 3.657.52 3.295 1.194 4.061 2.004 2.282.76-1.666 1.796-1.698 2.534-.078.777 1.705-.23 4.97-2.116 6.855l-1.436 1.436.982 1.605c.78 1.277 1.314 1.606 2.605 1.606 1.466 0 1.64.158 1.781 1.616.278 2.876-3.687 5.455-5.334 3.47zm80.464-.654c-1.707-2.17-.95-5.382.98-4.161 1.3.822 1.983.516 2.835-1.271 1.124-2.358 2.649-2.4 2.649-.075 0 2.032-.87 4.762-1.898 5.95-1.142 1.32-3.347 1.107-4.566-.443zm20.118-.187c-1.466-.59-2.77-2.667-2.568-4.091.134-.94.517-1.183 2.067-1.311 1.234-.102 2.008-.453 2.2-1 .165-.464.64-1.24 1.058-1.727.688-.8.652-.983-.38-1.946-2.324-2.164-3.299-6.66-1.727-7.965.683-.567.909-.524 1.5.284.383.524.696 1.153.696 1.398 0 .245.281.353.625.239.344-.115.77-1.384.949-2.821.317-2.554 1.629-4.798 2.493-4.264 1.121.693-.246 11.366-1.678 13.094-.386.466-.572 1.721-.47 3.175.209 2.948-.638 5.687-2.068 6.688-1.213.85-1.203.849-2.697.247zm-9.15-4.07c-1.747-2.41-1.92-4.393-.499-5.68.976-.883 1.041-.876 2.198.21 1.37 1.288 1.687.997 2.202-2.021.39-2.285 1.679-3.55 2.639-2.59.81.81-.346 8.565-1.58 10.594-1.389 2.284-3.06 2.111-4.96-.513zm-44.23-15.752c-7.209-1.545-10.148-3.045-14.649-7.48-2.269-2.236-4.125-4.408-4.125-4.828 0-.83 23.013-15.894 24.828-16.252.774-.152 4.06 1.863 11.64 7.138 5.81 4.043 10.882 7.67 11.273 8.061.615.615.566.964-.362 2.575-2.753 4.776-5.257 7.421-8.335 8.803-6.105 2.74-13.407 3.454-20.27 1.983zM468.53 347.16c-1.183-1.012-3.27-2.419-4.638-3.126-2.37-1.225-2.54-1.452-3.622-4.866-1.193-3.763-2.441-6.116-4.985-9.397l-1.535-1.98-.036-6.77c-.023-4.42-.325-8.033-.87-10.407l-.835-3.637 1.951-2.863c1.074-1.575 2.237-3.49 2.585-4.258.348-.767.909-1.33 1.245-1.25C459.074 298.908 480 320 480 320.99c0 .748-5.08 19.61-7.308 27.135-.405 1.367-1.821 1.038-4.163-.966zm54.3.966c-.285-.47-6.83-29.341-6.83-30.133 0-.664 17.442-21.28 18.336-21.673.341-.15 1.964 1.943 3.874 4.996l3.287 5.255-.566 2.245c-.358 1.425-.475 5.02-.319 9.84l.247 7.595-2.18 2.43c-2.56 2.853-4.91 7.53-5.84 11.63-.63 2.772-.757 2.942-2.503 3.355-1.03.243-2.917 1.404-4.286 2.635-2.539 2.282-2.837 2.452-3.22 1.825zm50.95-30.636c-3.863-1.509-3.947-1.676-3.28-6.545.316-2.307.672-4.498.791-4.87.143-.445 1.232.265 3.193 2.081 1.638 1.516 4.599 3.567 6.58 4.559 1.982.991 3.903 2.051 4.27 2.355.97.806.815 2.316-.301 2.913-1.647.882-8.501.581-11.253-.493zm-160.53-.312c-1.375-.415-2.917-1.16-3.427-1.656-.899-.875-.857-.95 1.377-2.487 3.272-2.251 6.262-3.51 8.364-3.523 2.191-.013 2.813.643 3.025 3.198.156 1.877.067 2-2.589 3.598-3.12 1.876-3.323 1.902-6.75.87zm179-4.687c-6.1-1.22-14.104-5.427-18.512-9.73-3.483-3.4-5.87-8.202-5.643-11.35l.155-2.16 5.083-.44c2.795-.242 5.659-.295 6.363-.119.704.177 3.366 2.315 5.917 4.75 5 4.776 10.007 8.554 16.674 12.58 4.803 2.902 5.246 3.876 2.338 5.146a20.58 20.58 0 01-12.375 1.323zm-196.95-1.023c-3.252-.496-7.063-2.129-7.476-3.203-.37-.964.298-1.363 5.426-3.25 10.388-3.82 16.295-7.102 21.36-11.867 5.464-5.139 11.251-6.3 13.145-2.636 1.12 2.164.92 2.922-1.016 3.845-1.992.95-3.936 4.42-4.498 8.028-.248 1.596-.73 2.433-1.912 3.32-5.757 4.318-17.204 6.954-25.028 5.763zm215.7-6.76c-6.535-1.73-16.473-7.649-23.206-13.823-4.376-4.012-4.324-4.828.504-7.878 5.56-3.51 4.375-3.92 21.587 7.458 8.324 5.502 15.268 10.352 15.43 10.777.407 1.059-.685 2.245-3.065 3.327-2.443 1.112-7.345 1.172-11.25.139zm-232.25-1.312c-.825-.289-1.904-.877-2.397-1.308-1.832-1.597-.879-2.64 6.647-7.265 10.156-6.242 20.154-11.778 21.904-12.128 3.064-.613 8.096 3.307 8.096 6.305 0 1.176-.579 1.946-2.933 3.906-4.11 3.42-9.722 6.822-13.765 8.344-6.66 2.506-13.974 3.4-17.552 2.146zm-15.54-6.933c-1.856-.538-3.434-2.156-3.059-3.135.15-.39 1.584-1.45 3.186-2.354 5.825-3.287 13.56-8.264 20.163-12.973 3.713-2.648 7.034-4.984 7.382-5.19 1.357-.81 10.118 6.058 10.118 7.932 0 .75-3.148 3.452-8.07 6.924-4.237 2.99-12.606 6.98-17.42 8.305-3.912 1.076-9.515 1.3-12.3.491zm108.79-.587c-7.012-.51-12.937-1.115-13.165-1.342-1.016-1.011.65-4.054 3.87-7.065 4.112-3.847 7.5-8.284 9.403-12.318 1.392-2.95 1.587-3.136 4.052-3.86 7.327-2.15 16.84-10.473 16.84-14.734 0-1.2-1.936-2.792-4.37-3.596-2.466-.814-9.591-.284-13.38.995-2.78.938-3.046.952-3.625.183-.344-.456-.625-1.007-.625-1.224 0-.217-.546-.532-1.213-.7-.667-.167-1.533-.677-1.924-1.134-1.63-1.903-1.444-2.533 1.768-5.986 1.715-1.846 3.809-4.157 4.652-5.137 1.36-1.58 5.723-4.957 6.405-4.957.142 0 1.047 1.188 2.01 2.64.964 1.452 2.324 3.176 3.023 3.832 1.084 1.019 1.449 1.111 2.5.633.676-.309 2.084-1.68 3.13-3.048 1.044-1.367 2.16-2.6 2.477-2.738.322-.14 1.699 1.509 3.109 3.724 1.391 2.187 2.888 4.113 3.326 4.281.994.382 3.233-1.7 5.31-4.937.842-1.313 1.635-2.387 1.763-2.387.127 0 1.516 1.35 3.086 3 1.62 1.703 3.281 2.998 3.841 2.995.61-.004 1.656-.95 2.737-2.477.963-1.36 2.001-2.482 2.309-2.495.994-.041 4.928 6.69 6.479 11.084.676 1.916.67 1.933-.93 2.904-.884.537-1.736 1.486-1.893 2.108-.333 1.324-.42 1.319-5.965-.382-5.45-1.67-12.047-1.642-14.34.062-2.566 1.91-2.03 4.987 1.66 9.545 2.095 2.587 8.496 6.934 11.327 7.693 3.792 1.016 4.132 1.292 5.823 4.729 1.646 3.342 7.513 9.891 11.439 12.768 1.268.93 1.722 1.692 1.927 3.237.182 1.372.05 2.192-.41 2.556-.371.295-6.296 1.014-13.166 1.597-9.903.84-12.615.933-13.095.443-.333-.34-2.813-6.98-5.51-14.755-2.698-7.776-5.13-14.18-5.405-14.23-.275-.05-2.947 6.468-5.937 14.484s-5.69 14.657-6 14.756c-.31.1-6.3-.236-13.313-.747zm154.099.374c-7.38-2.066-16.99-7.589-23.474-13.49-4.034-3.67-4.106-4.659-.5-6.912 5.207-3.253 7.027-3.57 8.913-1.547 1.891 2.028 10.048 7.283 20.062 12.926 7.743 4.362 9.15 5.333 9.15 6.312 0 2.84-8.13 4.397-14.151 2.711zm67.901-3.1c-17.468-1.375-43.093-13.748-66.228-31.978l-2.977-2.347 1.977-1.532c1.088-.842 3.65-3.165 5.692-5.162 2.042-1.996 3.906-3.63 4.14-3.63.236 0 2.165 1.213 4.287 2.696 9.701 6.779 40.476 22.609 50.037 25.739 2.185.715 19.684 4.839 26.947 6.35 1.657.345 1.38 1.368-.938 3.463-4.863 4.392-14.451 7.068-22.937 6.4zm-400.477-1.912c-3.963-1.117-6.894-2.707-9.308-5.05-2.372-2.302-4.019-5.085-3.383-5.716.23-.227 2.556-.632 5.168-.9 8.19-.838 22.951-5.126 33.837-9.829 9.114-3.938 25.452-12.906 36.536-20.057 2.289-1.477 4.362-2.685 4.606-2.685.691 0 11.021 12.34 11.021 13.167 0 1.72-12.364 11.953-20.513 16.977-9.46 5.832-22.9 10.898-34.849 13.136-8.79 1.646-19.149 2.075-23.115.957zm50.756-.983c-2.358-.84-4.479-2.345-4.66-3.307-.08-.417 1.329-1.485 3.5-2.656 8.667-4.676 17.89-11.047 26.709-18.449 2.517-2.113 4.729-3.842 4.915-3.842.594 0 12.257 8.163 12.257 8.578 0 .22-1.519 1.662-3.375 3.205-15.265 12.687-31.22 19.366-39.346 16.47zM644 288.29c-8.952-1.878-21.82-9.107-28.453-15.984-1.491-1.546-1.618-1.87-1.015-2.595.846-1.02 8.736-7.212 9.19-7.212.18 0 2.39 1.481 4.911 3.292 2.521 1.81 7.854 5.426 11.85 8.035l12.767 8.334c3.025 1.974 5.565 3.943 5.645 4.375.084.458-.437 1.05-1.25 1.422-2.06.94-9.85 1.13-13.645.333zm-227.339-1.28c-1.63-.38-4.467-2.4-6.633-4.722-1.677-1.798-1.244-2.129 7.222-5.506 6.747-2.692 16.698-8.302 17.133-9.658.11-.343-.154-.76-.586-.926-.489-.188-2.064.64-4.167 2.19-5.132 3.781-11.868 7.392-16.954 9.087-6.358 2.119-7.34 2.037-11.76-.976-7.095-4.837-8.296-6.5-4.692-6.5 2.274 0 9.277-1.34 13.526-2.588 7.158-2.102 16.25-6.643 16.25-8.115 0-1.68-1.901-1.208-8.705 2.164-14.587 7.229-22.798 8.595-30.14 5.016-2.81-1.37-5.655-3.883-5.655-4.993 0-.241.731-.539 1.625-.662 12.595-1.727 18.417-3.32 25.875-7.082 5.516-2.783 8.5-4.974 8.5-6.243 0-1.411-.614-1.266-4.402 1.045-4.992 3.044-14.842 7.704-19.098 9.035-3.21 1.004-4.793 1.173-11 1.173-6.528 0-7.456-.11-9.321-1.108-2.432-1.3-5.304-4.477-6.909-7.642-2.352-4.64-2.927-4.283 6.856-4.265 7.762.013 8.962-.102 12.005-1.153 1.86-.642 4.56-1.979 6-2.97 1.728-1.189 3.529-1.945 5.292-2.221 4.922-.773 9.512-3.915 10.619-7.267 1.277-3.871-.849-8.554-4.273-9.414-3.083-.774-6.95 1.724-7.995 5.165-.43 1.418-2.103 1.474-5.823.194-7.476-2.572-14.189-7.182-22.052-15.144-3.217-3.259-6.199-5.925-6.625-5.925-.495 0-.774.456-.774 1.267 0 1.671 7.22 9.197 13 13.551 6.748 5.084 17.032 9.906 21.956 10.297 1.62.128 1.757.008 2.75-2.417 1.496-3.658 2.137-4.276 4.251-4.098 1.618.135 1.865.36 2.535 2.297.69 1.995.672 2.277-.25 3.987-1.862 3.455-6.884 5.16-12.18 4.137-6.083-1.175-16.863-6.935-24.197-12.927-9.636-7.874-20.646-22.267-15.992-20.906.482.14 5.183.522 10.446.846 8.834.545 14.584.481 30.76-.342 10.47-.533 21.741 2.013 26.171 5.913 4.713 4.148 5.269 7.858 2.436 16.263-2.087 6.19-2.71 12.452-1.715 17.242 1.691 8.146 8.966 16.358 18.904 21.338 1.719.862 3.125 1.79 3.125 2.063 0 .274-.897.856-1.994 1.295-2.834 1.134-7.06 5.928-9.47 10.74-1.12 2.239-2.036 4.509-2.036 5.045 0 1.884-1.008 2.884-3.637 3.605-3.585.984-6.317 1.255-8.202.816zm-1.976-55.636c1.085-4.05-.322-10.814-3.267-15.703-2.947-4.894-7.354-6.354-22.418-7.427-13.052-.93-14-.931-14-.03 0 .675.886.93 7 2.018.963.171 4.788.52 8.5.777 7.739.533 10.904 1.333 14.325 3.62 3.541 2.366 5.318 5.352 6.659 11.19 1.175 5.117 1.754 6.68 2.475 6.68.234 0 .56-.506.726-1.125zm155.565 55.05c-2.839-1.046-4.63-2.804-5.487-5.386-1.554-4.68-6.31-10.694-10.763-13.61-.687-.451-1.137-.924-1-1.051.138-.127 2.48-1.315 5.206-2.639 12.841-6.237 19.885-14.778 21.267-25.787.548-4.365-.095-9.964-1.662-14.47-1.071-3.08-1.181-3.957-.794-6.336 1.308-8.04 6.819-12.867 16.577-14.523 4.105-.697 5.366-.709 10.656-.103 3.858.442 12.87.726 25.237.796 12.233.07 19.298.29 19.404.607.228.685-2.07 5.163-4.659 9.077-2.638 3.99-9.453 10.705-13.455 13.26-8.182 5.22-18.025 8.657-26.054 9.098-4.39.24-5.327.143-7.394-.772-1.954-.864-2.549-1.456-3.403-3.386-1.4-3.168-1.01-5.442 1.3-7.575 2.257-2.084 4.27-2.171 5.785-.25 1.08 1.369 1.134 2.888.217 5.962-.292.977-.091 1.122 1.977 1.432 6.237.936 15.439-1.769 22.606-6.644 3.176-2.16 10.507-9.548 11.63-11.72.38-.736.545-1.72.367-2.185-.258-.67-1.453.303-5.692 4.634-2.951 3.015-6.67 6.325-8.263 7.355-5.677 3.672-12.893 6.266-17.478 6.284-1.858.007-1.875-.011-1.875-2.01 0-2.729-1.078-5.114-2.896-6.409-4.594-3.27-10.604 1.418-10.702 8.35-.07 4.952 2.641 8.154 7.51 8.87 1.619.237 3.083.933 4.762 2.261 5.242 4.15 12.148 6.317 21.826 6.85 6.027.333 6.256.386 6.413 1.497.124.873-.675 1.977-3.293 4.549-4.404 4.325-7.787 6.025-12.738 6.4-8.392.634-16.748-2.225-28.773-9.846-2.098-1.33-2.765-1.546-3.25-1.052-.917.936 1.385 2.585 8.391 6.013 9.114 4.459 17.11 6.727 22.801 6.467 3.02-.138 3.822.65 2.613 2.562-1.465 2.316-3.396 4.089-5.914 5.427-2.294 1.219-2.98 1.328-8.328 1.328-3.205 0-5.74.139-5.635.31.105.17.855.585 1.666.92 1.945.806 2.21 1.679.983 3.238-1.53 1.944-4.836 3.647-8.275 4.261-7.918 1.415-17.681-2.878-24.381-10.72-1.297-1.517-2.653-2.759-3.015-2.759-1.296 0-1.181 1.465.272 3.472 2.71 3.741 9.981 8.365 17.353 11.036 1.728.625 3.25 1.315 3.385 1.532.357.578-2.648 2.728-5.882 4.21-3.253 1.488-6.989 1.969-9.143 1.175zM588 265.32c0-.1-1.631-1.432-3.625-2.961-1.994-1.53-4.286-3.473-5.094-4.32-1.561-1.636-2.781-1.999-2.781-.827 0 1.012 4.72 4.886 8.195 6.728 2.961 1.57 3.305 1.713 3.305 1.38zm-.486-30.846c.303-.565.683-3.841.845-7.281.278-5.866.389-6.395 1.791-8.512 1.694-2.557 5.567-5.669 8.881-7.135 2.855-1.263 6.706-1.85 16.969-2.585 8.702-.624 10.5-.992 10.5-2.144 0-1.2-1.215-1.3-9.619-.794-11.912.718-19.52 2.144-23.876 4.476-2.162 1.156-5.105 4.234-6.294 6.579-1.125 2.22-1.211 2.934-1.211 10.073 0 4.226.15 7.833.333 8.017.583.583 1.116.363 1.681-.694zm119.236 44.794c-14.889-2.358-33.53-10.172-52.5-22.007-8.153-5.087-14.75-9.754-14.75-10.437 0-.33 1.47-2.058 3.267-3.837 1.797-1.78 3.852-4.08 4.568-5.111.716-1.031 1.68-1.875 2.142-1.875.463 0 10.43 3.924 22.15 8.72 11.72 4.796 22.799 9.18 24.62 9.743 7.833 2.42 22.338 4.55 37.753 5.544 11.244.726 11.877.83 12.526 2.041 1.117 2.087-4.159 8.62-10.02 12.408-7.678 4.964-18.129 6.653-29.756 4.811zm-435.619-2.024c-7.091-1.54-13.562-6.68-16.89-13.413-2.093-4.234-2.06-5.567.123-4.985 2.235.596 19.963.41 25.136-.265 6.328-.824 16.203-2.834 21.75-4.428 5.457-1.568 26.427-9.905 37.75-15.01 4.538-2.045 8.614-3.832 9.06-3.971.852-.267 10.933 8.121 10.938 9.1.005 1.138-18.192 12.287-30.248 18.533-18.374 9.519-30.172 13.402-44.547 14.663-7.434.653-9.174.623-13.072-.224zm278.602-12.866c-2.252-1.221-4.733-3.524-4.733-4.393 0-1.251 7.666-9.242 12.149-12.663 1.98-1.512 5.604-4.003 8.052-5.535 3.656-2.288 4.846-2.786 6.658-2.786 4.21 0 5.125 1.658 3.153 5.717-2.205 4.54-7.722 9.88-15.512 15.017-6.717 4.429-8.553 5.302-9.767 4.643zm-109.983-3.522c-10.15-5.49-16.328-12.555-16.447-18.805l-.053-2.8 1.602.071c6.342.282 15.581 6.401 22.043 14.599 2.622 3.325 2.684 4.666.32 6.896-2.25 2.122-3.6 2.13-7.465.039zm284-3.638c-16.05-1.487-27.726-4.36-44.5-10.952-6.787-2.667-24.995-11.38-26.356-12.61-2.73-2.471 1.3-6.162 8.581-7.86l3.007-.702 7.755 2.692c25.067 8.7 44.804 11.93 77.257 12.642 16.85.37 16.015.076 13.699 4.806-3.296 6.73-11.106 10.996-22.443 12.258-5.45.606-7.935.567-17-.274zm-464.372-.237c-7.816-.708-13.417-3.22-19.192-8.604-3.739-3.486-6.186-6.957-6.186-8.774 0-1.141.121-1.188 2.375-.919 1.306.157 9.463.435 18.125.618 25.8.547 33.8-.53 54.225-7.302 7.439-2.466 15.888-5.402 18.775-6.525 2.888-1.122 5.656-2.167 6.153-2.323.497-.155 3.505.692 6.685 1.882 5.703 2.135 5.795 2.195 6.722 4.357.517 1.206.94 2.415.94 2.686 0 .63-9.981 5.4-20.137 9.624-26.94 11.203-51.934 16.78-68.485 15.28zm364.952-13.23c-5.404-1.111-14.685-3.783-15.676-4.513-1.018-.75-1.297-.589 3.49-2.02 2.812-.841 3.017-.835 7.274.209 5.128 1.257 10.36 1.367 15.332.32 4.302-.907 6.094-1.617 6.456-2.56.49-1.277-1.126-1.333-6.39-.223-7.933 1.673-16.118.962-11.21-.974.904-.357 3.503-1.755 5.776-3.106l4.131-2.458 3.464.537c1.906.296 5.39.538 7.744.538 2.978 0 4.279.181 4.279.596 0 1.173-4.036 7.362-6.237 9.562-3.346 3.346-6.198 4.56-11.013 4.688-2.2.059-5.539-.21-7.42-.596zm-260.165-.643c-3.64-1.304-7.727-4.56-10.324-8.226-3.077-4.341-4.585-7.421-3.855-7.873.317-.195 4.029-.49 8.25-.655l7.672-.3 5.421 3.269c6.595 3.976 11.883 6.671 16.061 8.185 1.728.626 3.26 1.332 3.407 1.57.332.536-2.978 1.977-7.845 3.415-5.339 1.578-15.197 1.9-18.787.615zm135.632-2.882c-1.006-1.006-2.444-3.803-3.274-6.369-.604-1.867-.58-1.931 1.72-4.625 1.284-1.502 2.624-2.731 2.978-2.731.354 0 1.255.883 2.003 1.963.748 1.08 1.679 2.085 2.068 2.234 1.902.73-.12 6.19-3.408 9.206-1.171 1.073-1.314 1.096-2.087.322zm13.072-.268c-1.251-.729-3.343-5.08-3.646-7.585-.233-1.929-.076-2.327 1.73-4.372l1.986-2.25 2.568 2.5c1.412 1.375 2.763 2.855 3.002 3.289.482.876-1.157 4.849-3.067 7.432-1.25 1.692-1.316 1.717-2.573.986zm-27.142-1.173c-1.212-1.849-2.728-6.127-2.717-7.664.008-1.07.66-1.884 2.98-3.719l2.968-2.349 2.021 2.85c1.112 1.566 2.021 3.25 2.021 3.743 0 2.101-4.433 8.355-5.923 8.355-.304 0-.912-.547-1.35-1.216zM733 238.473c-17.58-.976-37.372-4.854-54.96-10.768-9.104-3.061-10.042-3.468-10.035-4.348.005-.519 9.772-7.214 12.745-8.735.703-.36 1.966-.315 4.25.152 4.25.869 12.322 2.035 19.5 2.816 7.628.83 37.619.835 46.75.007 7.721-.7 23.056-2.515 24.276-2.874.427-.125 1.179.066 1.67.426.852.622.833.839-.403 4.519-1.932 5.756-4.417 10.34-7.338 13.536-3.992 4.368-4.7 4.604-15.724 5.244-10.203.592-10.512.592-20.731.025zm-482.75-1.301c-6.741-.803-13.16-1.848-15.363-2.501-8.106-2.405-13.676-7.942-15.368-15.275-.74-3.209-.655-5.396.21-5.396.4 0 3.944.56 7.875 1.243 17.917 3.116 35.404 4.55 49.896 4.092 12.927-.409 22.821-1.773 39.049-5.386l2.798-.623 3.952 2.164c5.882 3.222 7.701 4.449 7.701 5.194 0 1.35-14.222 7.184-25.874 10.613-7.612 2.24-18.794 4.478-27.126 5.43-6.066.694-23.335.97-27.75.445zm254.699-9.223c-.578-.578-1.607-2.266-2.287-3.75-.68-1.484-1.414-2.699-1.632-2.699-.218 0-1.018.956-1.776 2.125-1.767 2.723-3.774 4.875-4.546 4.875-.852 0-3.7-3.357-4.527-5.339-.382-.913-.808-1.661-.946-1.661-.139 0-1.222 1.012-2.408 2.25-1.185 1.238-2.538 2.25-3.005 2.25-.742 0-.81-.396-.54-3.125.439-4.417-.17-5.65-3.56-7.202-3.624-1.66-7.761-2.03-10.722-.96-1.237.448-2.47.864-2.738.925-.678.155-.915-1.877-.523-4.487.683-4.557 5.13-7.35 11.302-7.098l3.066.126 3.572-3.54c4.573-4.533 6.942-5.359 15.321-5.338 6.556.016 9.686.924 13.67 3.965 4.379 3.344 6.811 10.655 6.815 20.484 0 6.051-.273 7.75-1.25 7.75-.686 0-4.735-4.336-4.735-5.07 0-.237-.337-.43-.75-.43-.412 0-.75.19-.75.422 0 .233-.895 1.808-1.99 3.5-2.18 3.375-3.275 3.813-5.061 2.027zm-6.12-16.699c1.256-1.238 2.651-2.252 3.102-2.255 1.534-.009 6.039-2.986 6.829-4.514.43-.83.66-1.705.513-1.943-.147-.239-2.012.456-4.145 1.542-4.818 2.454-8.525 2.977-11.918 1.681-3.509-1.34-7.21-.43-7.21 1.771 0 .713.46.944 2.121 1.064 1.8.13 2.227.38 2.817 1.654 1.138 2.456 2.094 3.25 3.913 3.25 1.339 0 2.177-.474 3.979-2.25zm138.876 14.678c-.207-.335.666-1.526 2.108-2.875 4.908-4.591 8.19-9.473 10.963-16.303l1.624-4 3.425-.4c11.095-1.294 20.591-3.195 30.86-6.175 3.263-.948 6.045-1.612 6.181-1.475.371.37-1.664 3.558-5.171 8.097-10.116 13.092-25.137 21.446-41.695 23.186-6.194.651-7.865.64-8.295-.055zM346 224.288c-10.428-2.316-20.028-7.898-28.587-16.626-5.554-5.664-13.17-16.072-12.355-16.887.145-.145 2.78.748 5.856 1.984 7.42 2.983 17.195 5.884 26.086 7.743 8.273 1.73 7.406 1.125 13.337 9.302 1.973 2.72 5.397 6.971 7.61 9.446 2.212 2.475 4.029 4.643 4.037 4.817.053 1.07-11.437 1.23-15.984.22zm-92.75-7.342c-14.496-1.09-28.876-3.92-34.375-6.768-4.889-2.532-10.192-7.854-12.367-12.411-1.744-3.654-3.26-10.697-2.475-11.494.297-.301 4.008.386 10.094 1.869 34.118 8.313 60.908 12.435 81.853 12.596l11.73.09 4.389 4.71c2.414 2.592 4.392 4.873 4.395 5.07.011.683-1.779 1.297-7.494 2.569-16.603 3.695-37.727 5.123-55.75 3.769zm452.25-.785c-8.52-.476-18.998-2.173-20.401-3.302-.51-.41-.12-1.08 1.787-3.067a102.5 102.5 0 004.572-5.167l2.135-2.625h7.86c21.9 0 54.733-5.632 89.44-15.343 4.906-1.372 5.826-.24 4.383 5.397-2.413 9.416-8.466 16.088-17.482 19.269-3.667 1.294-27.8 3.755-45.794 4.671-9.066.462-20.005.53-26.5.167z" fill="#ddd"></path><path d="M473.25 444.588c-4.091-1.526-6.429-2.885-10.429-6.064l-3.79-3.012-3.212 2.245c-8.778 6.137-17.71 8.134-25.548 5.713-7.788-2.405-11.156-8.782-11.725-22.2l-.296-6.98-3-1.677c-5.74-3.208-9.32-7.888-10.304-13.475-.707-4.012.412-9.134 3.252-14.888 1.222-2.475 2.203-4.725 2.181-5-.022-.275-1.945-1.121-4.274-1.88-15.72-5.124-24.409-16.57-26.107-34.388-.274-2.874-.36-5.957-.193-6.85.265-1.41.085-1.808-1.355-3.004-10.216-8.479-15.338-15.998-16.264-23.875-.341-2.9.594-8.2 1.508-8.55.336-.13 2.545.396 4.91 1.166 3.873 1.263 4.673 1.756 8.097 4.987 2.679 2.529 3.799 3.94 3.799 4.785 0 1.995 2.889 7.13 5.221 9.28 1.207 1.112 3.538 2.7 5.18 3.529l2.985 1.507-.018 8.896c-.026 12.758 1.431 18.089 5.754 21.055 6.585 4.519 13.268 6.814 18.893 6.488 4.91-.284 7.279-1.586 13.686-7.521 2.598-2.406 4.957-4.375 5.243-4.375.287 0 .754.435 1.038.967.63 1.176.671 14.52.054 17.18-.678 2.92-3.469 7.223-6.855 10.57-3.559 3.517-7.675 9.623-9.157 13.584-.981 2.623-.995 2.92-.267 6.055 1.346 5.805 4.076 9.655 7.87 11.097 1.36.518 1.373.564 1.376 5.16.004 5.772.588 7.93 2.812 10.393 2.575 2.85 5.156 3.662 10.79 3.394 5.972-.285 9.056-1.57 12.224-5.093l2.299-2.557.797 1.25c1.138 1.784 3.908 4.38 5.749 5.387 1.234.676 2.824.863 7.326.863 6.566 0 8.533-.697 11.497-4.073 4.212-4.797 5.63-10.881 5.639-24.177.006-9.33-.203-11.317-1.97-18.765-.232-.98-.02-1.014 6.172-1 3.527.008 7.368-.156 8.537-.366 2.6-.466 2.635-.255.86 5.304-2.788 8.73-2.55 24.113.507 32.827 2.313 6.595 7.13 10.096 14.34 10.426 3.3.152 4.254-.007 6.639-1.098 1.63-.747 3.843-2.374 5.338-3.927l2.553-2.651.819 1.238c4.068 6.15 11.462 8.957 17.93 6.808 6.738-2.238 9.632-8.198 7.914-16.296-.75-3.537-.745-3.786.09-4.384 8.127-5.824 9.048-6.62 10.045-8.686 3.847-7.97 1.898-15.065-6.33-23.028-2.381-2.305-5.296-5-6.476-5.988l-2.147-1.797.346-6.558c.19-3.608.544-6.559.786-6.559s1.8.687 3.465 1.527c4.217 2.129 12.483 4.817 16.946 5.51 4.686.73 9.883.364 13.642-.957 4.292-1.508 10.077-6.06 11.651-9.165 1.903-3.755 2.788-9.198 2.624-16.136l-.14-5.97 1.986-1.415c5.722-4.073 9.439-9.131 11.732-15.965l1.357-4.045 5.7-2.184c3.134-1.201 5.867-2.188 6.073-2.192.693-.015.385 9.06-.412 12.134-1.539 5.94-5.41 11.937-9.926 15.382l-2.504 1.908-.038 6.66c-.044 7.518-.834 11.41-3.504 17.245-4.334 9.473-11.762 16.2-22.658 20.516l-4.667 1.85.326 1.523c1.499 6.995 1.411 11.751-.311 16.938-1.864 5.612-5.188 9.678-10.74 13.14l-3.69 2.3-.009 3.823c-.022 9.835-3.931 18.152-10.28 21.873-4.13 2.42-12.804 3.396-17.961 2.022-3.067-.817-5.4-1.987-7.932-3.977-1.568-1.233-2.085-1.41-2.75-.94-6.939 4.905-11.098 6.345-18.318 6.345-5.108 0-5.732-.11-8.754-1.542-1.79-.848-4.542-2.592-6.118-3.875-1.575-1.283-3.009-2.333-3.185-2.333-.177 0-1.842 1.434-3.7 3.186-4.833 4.56-8.011 5.961-13.993 6.169-3.711.129-5.297-.039-7.25-.767zm-6.885-70.578c-4.237-.764-7.152-3.103-6.087-4.885.853-1.428 5.717-3.554 9.472-4.14 3.901-.61 9.262.074 10.29 1.313.776.936.353 1.046-6.499 1.701-6.063.58-6.75.757-6.226 1.606.226.366 2.366.43 6.719.2 3.513-.186 6.502-.15 6.643.078.472.763-.437 1.562-3.236 2.844-3.121 1.429-7.472 1.933-11.076 1.283zm51.385-.507c-3.424-1.144-5.559-2.599-5.042-3.435.251-.406 2.221-.474 6.89-.238 5.474.277 6.501.217 6.307-.366-.274-.82-2.524-1.276-8.53-1.726-4.862-.364-5.762-1.19-2.5-2.296 5.827-1.973 18.625 1.138 18.625 4.529 0 3.37-9.716 5.55-15.75 3.532zm-63.908-7.095c-6.678-3.651-12.571-13.435-9.585-15.914 1.892-1.57 9.003 1.046 14.325 5.27 4.215 3.347 7.013 8 5.406 8.993-.281.174-2.812-1.527-5.625-3.78-5.36-4.294-7.124-5.383-7.735-4.772-.374.374 2.407 3.165 7.372 7.401 2.34 1.997 2.668 2.48 2.2 3.245-.893 1.458-3.173 1.299-6.358-.443zm79.758.992c-1.06-1.06-.668-1.695 3.025-4.899 4.191-3.636 5.875-5.363 5.875-6.029 0-1.143-1.658-.181-6.945 4.028-3.109 2.475-5.863 4.5-6.12 4.5-1.068 0-.955-1.629.259-3.7 2.787-4.754 11.413-10.597 16.493-11.17 4.185-.471 4.869 1.598 2.256 6.826-3.396 6.795-12.257 13.03-14.843 10.444zm-67.612-5.923c-.567-1.112-1.78-2.856-2.693-3.875-2-2.23-2.366-3.284-2.366-6.825 0-3.585.671-4.777 2.692-4.777 1.287 0 2.16.59 4.635 3.125 3.497 3.585 5.793 7.856 6.135 11.412.21 2.193.129 2.463-.743 2.463-.728 0-1.686-1.307-3.735-5.099-1.515-2.804-3.016-5.185-3.334-5.291-1.122-.374-.557 1.956 1.437 5.922 1.11 2.206 1.884 4.226 1.72 4.49-.162.263-.84.478-1.505.478-.911 0-1.466-.5-2.242-2.023zm58.289 1.566c-.156-.251.619-2.32 1.72-4.598 2.02-4.179 2.506-6.196 1.403-5.828-.33.11-1.85 2.489-3.375 5.286-2 3.665-3.04 5.088-3.72 5.092-.846.005-.915-.28-.663-2.73.5-4.84 5.311-12.18 9.192-14.021l1.866-.886 1.4 1.677 1.4 1.677.013-3.23c.015-3.837 1.489-8.522 3.993-12.7 2.021-3.372 5.107-5.761 6.412-4.965 3.313 2.022 3.516 12.119.382 18.965-.98 2.14-1.521 2.714-3.03 3.211-1.01.334-1.957.486-2.105.339-.147-.147.318-2.717 1.034-5.71 1.358-5.68 1.637-8.622.819-8.622-.762 0-1.274 1.305-3.256 8.296-2.262 7.98-2.38 8.205-3.664 7.042-.937-.847-.971-.806-1.226 1.452-.144 1.278-.732 2.917-1.306 3.642-.575.725-1.893 2.6-2.93 4.165-1.314 1.984-2.218 2.856-2.981 2.875-.603.015-1.223-.178-1.378-.429zm-66.682-11.918c-.242-.481-.827-2.337-1.299-4.125-1.754-6.64-3.374-11-4.087-11-1.002 0-.904.975.794 7.93.827 3.386 1.384 6.348 1.239 6.583-.145.235-.99.185-1.878-.112-4.021-1.344-6.438-5.625-6.761-11.978-.196-3.837-.078-4.638 1.04-7.082 2.042-4.459 3.911-4.813 7.053-1.334 3.625 4.011 6.859 12.469 5.816 15.21-.281.742-.512 2.571-.512 4.066 0 2.722-.58 3.482-1.405 1.842zm-16.036-3.635c-4.063-1.922-7.55-4.686-11.18-8.859-4.582-5.267-6.126-9.813-4.04-11.898 1.731-1.732 9.04.464 14.43 4.334L443 332.67v3.165c0 1.865-.214 3.165-.522 3.165-.287 0-1.868-1.12-3.513-2.49-3.695-3.074-4.79-3.698-5.234-2.98-.44.712.442 1.714 7.47 8.491 5.754 5.548 6.656 6.98 4.394 6.979-.465 0-2.28-.68-4.036-1.51zm104.441.522c0-1.2 2.097-3.72 5.046-6.064 4.763-3.785 8.454-7.37 8.454-8.207 0-.408-.147-.741-.328-.741-.447 0-3.343 2.188-6.74 5.091-1.55 1.325-3.069 2.409-3.375 2.409-.347 0-.557-1.128-.557-3 0-3.528.287-3.902 5.716-7.446 3.95-2.58 9.773-4.734 12.073-4.469 2.231.258 3.1 2.234 2.3 5.228-1.31 4.895-7.416 12.303-12.119 14.702-4.709 2.402-10.47 3.776-10.47 2.497zm-28.11-4.522c-3.34-5.291-14.804-25.725-14.609-26.04.294-.476 9.735 2.852 10.512 3.705.674.74 5.408 21.991 5.103 22.908-.15.45-.478.262-1.005-.573zm-39.383.135c.007-.369 14.85-20.544 16.369-22.25.428-.481.97-.875 1.201-.875.496 0 .563 5.84.105 9.179l-.318 2.318-8.403 6.002c-4.622 3.3-8.529 6.001-8.682 6.001-.153 0-.276-.169-.272-.375zm68.944-13.75c-.368-.894-1.53-2.56-2.582-3.705-2.206-2.398-2.744-3.949-3.178-9.16-.59-7.074 1.462-12.493 4.448-11.743 2.06.517 5.096 4.32 6.896 8.641 1.234 2.96 1.658 4.822 1.847 8.115.232 4.04.175 4.354-1.034 5.75-1.671 1.93-2.148 1.429-3.405-3.582-1.657-6.607-2.97-10.191-3.734-10.191-1.01 0-.89 1.355.8 8.993.82 3.708 1.491 7.14 1.491 7.625 0 1.414-.822 1.02-1.549-.743zm-108.244-2.122c-1.282-1.283-1.314-1.462-1.103-6.162.182-4.061.463-5.373 1.742-8.143 2.433-5.269 6.618-9.144 8.92-8.26.432.165 1.25 1.351 1.818 2.636.91 2.057 1.004 3.029.787 8.131-.256 6.012-.977 9.045-2.153 9.045-.376 0-1.479.698-2.45 1.552-1.082.95-1.768 1.285-1.768.864 0-.379.558-3.377 1.239-6.663.807-3.894 1.069-6.145.75-6.464-1-1-1.177-.542-4.71 12.184-.34 1.223-.873 2.308-1.184 2.412-.312.104-1.161-.406-1.888-1.132zm-8.481-3.55c-1.574-.56-2.376-1.301-3.604-3.336-2.808-4.652-3.266-6.25-3.515-12.254-.26-6.253.39-8.997 2.628-11.099 1.667-1.566 3.3-1.058 6.213 1.932 2.372 2.436 6.078 8.981 6.117 10.804.027 1.279-2.25 7.285-2.81 7.407-.232.051-.734-.92-1.116-2.157-1.692-5.482-3.255-9-3.998-9-1.065 0-.603 3.168 1.613 11.066.955 3.401 1.738 6.465 1.74 6.809.008.779-.693.742-3.268-.173zm128.774.02c0-.464.766-3.798 1.702-7.408 2.18-8.41 2.396-9.695 1.706-10.122-.899-.555-1.715 1.028-3.66 7.096-1.762 5.498-2.748 7.383-2.748 5.252 0-.56-.539-2.449-1.197-4.197-1.191-3.166-1.193-3.19-.288-5.758 1.969-5.591 6.714-11.623 9.743-12.383 2.81-.705 4.47 2.77 4.442 9.297-.034 7.896-2.966 16.32-6.202 17.815-2.592 1.198-3.498 1.304-3.498.409zm-85.615-14.598c-4.364-4.331-7.638-7.938-7.275-8.015.676-.142 24.304 9.63 25.054 10.363.227.222-.223.853-1 1.402-1.867 1.318-7.473 4.125-8.24 4.125-.332 0-4.174-3.544-8.539-7.875zm27.925-.25c1.272-2.155 6.245-9.35 6.625-9.585.44-.272 16.02-1.771 18.54-1.784 2.186-.01.492.919-11.91 6.536-11.712 5.305-14.033 6.151-13.255 4.833zm46.876-8.5c-4.31-6.652-6.007-8.875-6.773-8.875-.897 0-.313 1.853 1.837 5.83 1.238 2.288 2.25 4.275 2.25 4.415 0 .14-.492.255-1.093.255-.6 0-1.587.465-2.192 1.033l-1.1 1.033-1.084-1.523c-4.342-6.097-6.687-17.78-3.942-19.637.898-.607 3.886-.202 6.038.819 4.187 1.987 9.598 8.185 11.104 12.718 1.825 5.495 1.806 10.557-.04 10.557-.392 0-2.644-2.981-5.005-6.625zm-109.668 5.158c-1.814-3.39 1.753-12.304 7.038-17.589 3.936-3.936 8.875-6.086 10.781-4.692 2.484 1.816-.351 14.459-4.474 19.953-.675.9-.785.906-1.9.125-.652-.457-1.717-.83-2.366-.83-1.39 0-1.496.365 1.65-5.649 1.374-2.625 2.33-4.94 2.124-5.147-.682-.682-2.879 1.946-7.025 8.405-2.253 3.51-4.37 6.383-4.703 6.386-.334.003-.84-.43-1.125-.962zm53.624-4.376c-1.372-2.149-2.727-4.357-3.012-4.907-.416-.802.107-2.584 2.637-9 1.736-4.4 3.329-7.943 3.54-7.874.504.166.236 24.753-.276 25.28-.217.224-1.517-1.35-2.889-3.5zm-56.139-3.532c.002-.481 1.015-4.574 2.25-9.094 2.274-8.32 2.644-10.531 1.759-10.531-.951 0-2.133 2.551-4.555 9.83-1.348 4.05-2.672 7.585-2.942 7.855-.322.322-.862.159-1.565-.472-.999-.897-1.055-1.31-.82-6.011.217-4.306.521-5.704 2.068-9.5 2.43-5.968 4.839-9.389 7.528-10.69 1.174-.569 2.512-.89 2.973-.712 2.173.833 3.436 7.005 2.728 13.331-.418 3.739-.554 4.05-3.059 7.015-2.407 2.851-3.518 4.794-4.847 8.479-.554 1.534-1.523 1.853-1.518.5zm121.22-8.75c-2.522-7.608-3.943-10.875-4.733-10.875-.885 0-.508 3.162 1.037 8.694 1.78 6.377 1.773 7.97-.024 5.056-.678-1.1-2.402-3.273-3.83-4.83-2.964-3.228-3.505-5.184-3.025-10.92.333-3.972 1.36-6.702 2.816-7.48 1.51-.81 4.938.828 6.873 3.283 3.936 4.994 6.163 11.422 6.163 17.788 0 3.742-.151 4.56-1 5.409-.55.55-1.206 1-1.459 1-.252 0-1.52-3.206-2.819-7.125zm-98.64-4.711l-.625-2.337 2.27-2.305c1.25-1.269 2.272-2.467 2.272-2.664 0-.879-1.787-.187-4.885 1.892-1.845 1.238-3.712 2.25-4.15 2.25-.438 0-1.885.552-3.217 1.226-1.332.674-2.584 1.125-2.783 1.003-.764-.472.517-3.854 2.269-5.992 2.318-2.83 4.34-4.371 7.787-5.937 7.195-3.268 12.479-2.779 12.479 1.156 0 2.376-2.914 7.39-6.28 10.806-1.755 1.781-3.488 3.238-3.852 3.238-.364 0-.94-1.048-1.285-2.336zm70.026-1.459c-4.245-4.272-6.109-7.442-6.109-10.388 0-1.685.183-1.945 1.875-2.655 3.292-1.38 9.877.502 15.024 4.295 2.204 1.624 6.295 7.325 5.814 8.102-.147.239-1.135-.009-2.194-.55-1.06-.54-2.904-1.128-4.098-1.306-1.194-.178-3.203-.972-4.465-1.763-1.261-.792-2.555-1.44-2.875-1.44-1.05 0-.608 1.287.955 2.781 1.408 1.346 1.51 1.658 1.21 3.719-.18 1.238-.526 2.455-.767 2.705-.26.269-2.053-1.168-4.37-3.5zm-82.094-12.903c-.579-2.067-.523-2.393.94-5.459 1.888-3.954 5.468-7.371 9.92-9.467 3.495-1.644 8.086-2.278 10.293-1.42 1.34.522 1.399.67 1.064 2.673-.455 2.725-1.773 6.071-3.552 9.016-1.29 2.134-1.642 2.38-4.17 2.9-1.518.312-3.166.781-3.661 1.043-.496.261-1.248.405-1.673.319-.546-.111.117-1.163 2.276-3.606 1.677-1.897 3.048-3.753 3.048-4.125 0-1.62-1.942-.32-7.206 4.824-3.096 3.025-5.862 5.5-6.146 5.5-.285 0-.795-.989-1.133-2.198zm92.083-3.322c-3.31-3.208-6.061-5.48-6.638-5.48-.915 0-.934.1-.273 1.375.392.756 2.113 2.903 3.826 4.77 1.712 1.868 3.028 3.48 2.925 3.581-.103.102-1.506-.351-3.117-1.008-1.611-.656-3.716-1.34-4.678-1.521-1.372-.257-2.063-.824-3.213-2.637-2.679-4.223-3.787-10.227-2.14-11.594 1.224-1.015 5.226-.733 7.739.546 5.33 2.711 10.376 7.744 12.242 12.21.827 1.982.543 5.293-.452 5.258-.313-.011-3.113-2.486-6.221-5.5zm-68.722 2.623c-.756-.469-1.31-1.044-1.233-1.278.077-.234 2.942-1.809 6.366-3.5 3.423-1.691 6.303-3.356 6.4-3.7.327-1.172-2.415-.648-7.473 1.426-2.75 1.128-5.132 1.92-5.292 1.76-.16-.16.276-1.589.967-3.176.692-1.587 1.388-3.267 1.548-3.734.985-2.885 12.882-5.027 16.804-3.025 2.712 1.384 2.984 2.25 1.553 4.946-1.565 2.952-6.25 6.865-10.766 8.996-4.365 2.059-7.012 2.442-8.874 1.285zm43.936-.57c-1.534-.807-3.715-2.212-4.847-3.12-3.633-2.921-6.864-8.29-6.133-10.196.905-2.359 7.257-2.927 12.99-1.161 5.59 1.72 5.864 1.95 7.41 6.191.763 2.09 1.299 3.889 1.19 3.997-.107.108-2.665-.8-5.684-2.018-9.326-3.76-10.665-2.642-2.123 1.774 2.926 1.513 5.344 2.933 5.374 3.157.083.62-3.406 2.843-4.46 2.843-.51 0-2.183-.66-3.717-1.467zm23.65-14.86c-1.631-1.556-2.962-3.262-2.962-3.797 0-.535 1.826-2.92 4.057-5.3 4.795-5.113 11.46-13.297 13.701-16.82 2.032-3.197 3.584-7.381 4.216-11.369 1.405-8.858-4.737-19.607-13.623-23.841-4.66-2.221-8.894-2.822-14.323-2.032-8.797 1.28-8.866 1.277-9.949-.504-.53-.871-1.108-2.488-1.284-3.593-.741-4.634-3.462-7.653-9.371-10.398-6.105-2.837-12.96-2.905-19.007-.191-4.424 1.985-8.035 6.387-10.19 12.422-.49 1.375-1.092 2.725-1.336 3-.264.298-4.023.5-9.292.5-8.75 0-8.882.016-11.8 1.45-5.824 2.859-10.851 9.51-12.246 16.2-1.412 6.77-.023 12.53 5.114 21.2 2.737 4.618 9.033 12.9 9.808 12.9.713 0 1.649 2.94 1.334 4.193-.2.797-1.533 1.998-3.895 3.51-1.975 1.263-3.842 2.297-4.148 2.297-.306 0-4.812-3.744-10.013-8.32-9.975-8.777-12.496-10.389-17.164-10.972l-2.718-.34.298-2.809c.307-2.902 1.603-7.337 2.463-8.434.27-.344 1.122-.625 1.894-.625 1.282 0 2.971-1.085 2.976-1.91.008-1.402 1.671-10.037 2.514-13.056 2.194-7.858 6.613-15.382 11.589-19.735 4.877-4.267 12.763-7.268 19.155-7.29l2.51-.01 2.191-3.624c5.883-9.734 10.972-15.077 17.49-18.364 7.653-3.858 16.12-4.307 23.656-1.253 6.998 2.835 14.702 9.797 19.589 17.7l2.653 4.292 5.45.314c6.059.349 10.123 1.567 15.007 4.497 3.477 2.086 9.653 8.684 11.67 12.468 1.757 3.298 3.65 10.716 4.826 18.912l.833 5.809 2.385 2.3c3.695 3.566 5.478 8.103 4.061 10.335-.222.35-2.3.986-4.617 1.414-4.67.862-7.525 2.318-13.882 7.08-4.528 3.392-11.218 9.696-13.332 12.563-.825 1.119-1.91 2.04-2.412 2.046-.502.007-2.246-1.26-3.875-2.814z" fill="#fbc719"></path></svg>